<?xml version="1.0" encoding="utf-8"?>
<!-- Generator: Adobe Illustrator 25.3.1, SVG Export Plug-In . SVG Version: 6.00 Build 0)  -->
<svg version="1.1" id="Design_copy" xmlns="http://www.w3.org/2000/svg" xmlns:xlink="http://www.w3.org/1999/xlink" x="0px"
	 y="0px" viewBox="0 0 160.8 45.5" style="enable-background:new 0 0 160.8 45.5;" xml:space="preserve">
<style type="text/css">
	.st0{fill:#FFFFFF;}
	.st1{fill:url(#SVGID_1_);}
</style>
<g>
	<path class="st0" d="M52.9,10.4c3.6,0,6,1.1,8.2,2.8l-1.7,3.3c-1.7-1.2-3.9-2.2-6.5-2.2c-5.4,0-8.6,3.8-8.6,8.4s3.2,8.4,8.6,8.4
		c2.6,0,4.8-0.9,6.5-2.2l1.7,3.3c-2.2,1.7-4.6,2.8-8.2,2.8c-8.1,0-13-5.7-13-12.3C39.8,16.1,44.8,10.4,52.9,10.4z"/>
	<path class="st0" d="M80.5,17.4v17.3h-4.2v-2.6c-1.2,1.9-3.4,3-5.9,3c-5.1,0-8.5-4-8.5-9.1c0-4.9,3.2-8.9,8.5-8.9
		c2.3,0,4.5,1,5.9,2.9v-2.6H80.5z M71.2,31.6c2.9,0,5.2-1.9,5.2-5.4c0-3.3-2.1-5.6-5.3-5.6c-3.2,0-5,2.5-5,5.5
		C66.1,29.1,68.1,31.6,71.2,31.6z"/>
	<path class="st0" d="M84.3,34.7V10h4.2v24.7H84.3z"/>
	<path class="st0" d="M101.9,34.7h-4.4l-7-17.3h4.5L99.7,30l4.6-12.6h4.5L101.9,34.7z"/>
	<path class="st0" d="M127.5,17.4v17.3h-4.2v-2.6c-1.2,1.9-3.4,3-5.9,3c-5.1,0-8.5-4-8.5-9.1c0-4.9,3.2-8.9,8.5-8.9
		c2.3,0,4.5,1,5.9,2.9v-2.6H127.5z M118.3,31.6c2.9,0,5.2-1.9,5.2-5.4c0-3.3-2.2-5.6-5.3-5.6c-3.2,0-5,2.5-5,5.5
		C113.2,29.1,115.2,31.6,118.3,31.6z"/>
	<path class="st0" d="M135.4,21.3c0.6-2.9,2.9-4.2,4.7-4.2c0.6,0,0.9,0.1,1.4,0.2v4.1c-0.6-0.2-1.4-0.3-2-0.3
		c-1.5,0-4.1,0.9-4.1,5.6v8h-4.2V17.4h4.1V21.3z"/>
	<path class="st0" d="M156.1,17.4h4.7l-10.7,25.1H146l3.5-8.8l-7.3-16.2h4.7l4.7,11.8L156.1,17.4z"/>
</g>
<linearGradient id="SVGID_1_" gradientUnits="userSpaceOnUse" x1="19.9158" y1="45.5305" x2="19.9158" y2="-6.184564e-11">
	<stop  offset="0" style="stop-color:#75ABC0"/>
	<stop  offset="1" style="stop-color:#91CA66"/>
</linearGradient>
<path class="st1" d="M36.9,36.9c-7.8,7.8-20.5,7.8-28.4,0c-7.8-7.8-7.8-20.5,0-28.4c7.5-7.5,19.5-7.8,27.4-0.9l-2.4,2.4
	c-3-2.6-6.8-4-10.8-4c-4.4,0-8.6,1.7-11.8,4.9C4.5,17.5,4.5,28,11,34.5c3.1,3.1,7.3,4.9,11.8,4.9c4.4,0,8.6-1.7,11.8-4.9l1-1l0,0
	l-1.9-1.9l-2.4-2.4l-1.9-1.9l-1,1c-3,3-8,3-11.1,0c-3-3-3-8,0-11.1c1.5-1.5,3.4-2.3,5.5-2.3c2.1,0,4.1,0.8,5.5,2.3l1,1l1.9-1.9l-1-1
	c-4.1-4.1-10.8-4.1-14.9,0c-4.1,4.1-4.1,10.8,0,14.9c2.1,2.1,4.8,3.1,7.5,3.1c2.3,0,4.5-0.7,6.4-2.2l2.4,2.4
	c-2.5,2.1-5.6,3.2-8.8,3.2c-3.7,0-7.2-1.4-9.9-4.1c-5.4-5.4-5.4-14.3,0-19.7c2.6-2.6,6.1-4.1,9.9-4.1c3.7,0,7.2,1.4,9.9,4.1l1,1
	l1.9-1.9l0,0l2.4-2.4l1.9-1.9l-1-1C30-2.2,15.5-2.2,6.7,6.7c-8.9,8.9-8.9,23.3,0,32.2c4.4,4.4,10.3,6.7,16.1,6.7
	c5.8,0,11.7-2.2,16.1-6.7l1-1L37.9,36L36.9,36.9z"/>
</svg>
